<svg width="550" height="300" viewBox="0 0 550 300" fill="none" xmlns="http://www.w3.org/2000/svg">
<path d="M528.614 144.408H464.135V207.148H528.614V144.408Z" fill="white"/>
<path d="M373.777 50.338V207.092L438.338 207.148L438.357 67.731H464.124L464.158 111.723H528.667L528.724 20.797H403.635L373.777 50.338Z" fill="white"/>
<path d="M197.53 50.413L197.506 207.25H287.854V231.54H197.506V279.314H322.587L352.399 249.758L352.42 20.686H227.394L197.53 50.413ZM262.054 67.809H262.096H287.82H287.853V160.252H287.82H262.096H262.054V67.809Z" fill="white"/>
<path d="M21.258 50.412V207.095H176.096V160.253H85.856V135.187H176.096V20.797H51.13L21.258 50.412ZM85.856 67.809H111.616V92.879H85.856V67.809Z" fill="white"/>
<path d="M287.82 160.252H287.854V67.809H287.82H262.096H262.054V160.252H262.096H287.82Z" fill="black" fill-opacity="0.25"/>
<path d="M111.616 67.809H85.856V92.879H111.616V67.809Z" fill="black" fill-opacity="0.25"/>
<path d="M394.73 0.111L373.676 20.937V20.69V0H218.449L197.354 20.996V20.797V0.111H42.209L0 41.955V227.781H176.245L176.249 300H331.518L373.784 258.145V227.835H549.876L550 0.111H394.73ZM176.096 135.187H85.856V160.253H176.096V207.095H21.258V50.412L51.13 20.797H113.613H176.096V135.187ZM352.398 249.759L322.586 279.315H197.506V231.54H287.854V207.25H197.506L197.53 50.413L227.394 20.687H352.42L352.398 249.759ZM528.614 207.148H464.135V144.408H528.614V207.148ZM528.667 111.723H464.158L464.124 67.731H438.357L438.337 207.148L373.776 207.091V50.338L403.633 20.797H528.722L528.667 111.723Z" fill="black" fill-opacity="0.25"/>
<path d="M287.82 160.252H287.854V67.809H287.82H262.096H262.054V160.252H262.096H287.82Z" fill="black"/>
<path d="M111.616 67.809H85.856V92.879H111.616V67.809Z" fill="black"/>
<path d="M394.73 0.111L373.676 20.937V20.69V0H218.449L197.354 20.996V20.797V0.111H42.209L0 41.955V227.781H176.245L176.249 300H331.518L373.784 258.145V227.835H549.876L550 0.111H394.73ZM176.096 135.187H85.856V160.253H176.096V207.095H21.258V50.412L51.13 20.797H113.613H176.096V135.187ZM352.398 249.759L322.586 279.315H197.506V231.54H287.854V207.25H197.506L197.53 50.413L227.394 20.687H352.42L352.398 249.759ZM528.614 207.148H464.135V144.408H528.614V207.148ZM528.667 111.723H464.158L464.124 67.731H438.357L438.337 207.148L373.776 207.091V50.338L403.633 20.797H528.722L528.667 111.723Z" fill="black"/>
</svg>
