<?xml version="1.0" encoding="utf-8"?>
<!-- Generator: Adobe Illustrator 16.0.0, SVG Export Plug-In . SVG Version: 6.00 Build 0)  -->
<!DOCTYPE svg PUBLIC "-//W3C//DTD SVG 1.1//EN" "http://www.w3.org/Graphics/SVG/1.1/DTD/svg11.dtd">
<svg version="1.1" id="Layer_1" xmlns="http://www.w3.org/2000/svg" xmlns:xlink="http://www.w3.org/1999/xlink" x="0px" y="0px"
	 width="550px" height="300px" viewBox="0 0 550 300" enable-background="new 0 0 550 300" xml:space="preserve">
<polygon fill="#FFFFFF" points="287.82,160.252 287.854,160.252 287.854,67.809 287.82,67.809 262.096,67.809 262.054,67.809 
	262.054,160.252 262.096,160.252 "/>
<path fill="#FFFFFF" d="M394.73,0.111l-21.053,20.826V20.69V0H218.449l-21.095,20.996v-0.199V0.111H42.209L0,41.955v185.826h176.245
	L176.249,300h155.268l42.266-41.855v-30.31h176.092L550,0.111H394.73z M176.096,135.187h-90.24v25.066h90.24v46.842H21.258V50.412
	L51.13,20.797h124.966V135.187L176.096,135.187z M352.398,249.759l-29.811,29.556H197.506v-47.775h90.348V207.25h-90.348
	l0.024-156.837l29.864-29.726H352.42L352.398,249.759z M528.614,207.148h-64.479v-62.74h64.479V207.148z M528.667,111.723h-64.509
	l-0.034-43.992h-25.767l-0.019,139.417l-64.561-0.056V50.338l29.858-29.541h125.089L528.667,111.723z"/>
<rect x="85.856" y="67.809" fill="#FFFFFF" width="25.76" height="25.07"/>
</svg>
