<?xml version="1.0" encoding="utf-8"?>
<!-- Generator: Adobe Illustrator 16.0.0, SVG Export Plug-In . SVG Version: 6.00 Build 0)  -->
<!DOCTYPE svg PUBLIC "-//W3C//DTD SVG 1.1//EN" "http://www.w3.org/Graphics/SVG/1.1/DTD/svg11.dtd">
<svg version="1.1" id="Layer_1" xmlns="http://www.w3.org/2000/svg" xmlns:xlink="http://www.w3.org/1999/xlink" x="0px" y="0px"
	 width="560px" height="310px" viewBox="-10 0 560 310" enable-background="new -10 0 560 310" xml:space="preserve">
<g id="Layer_2">
	<g>
		<g>
			<rect x="464.137" y="144.408" fill="#FFFFFF" width="64.479" height="62.74"/>
			<polygon fill="#FFFFFF" points="438.34,207.148 438.357,67.809 438.357,67.731 438.381,67.731 464.124,67.731 464.151,67.731 
				464.158,67.731 464.158,111.723 528.667,111.723 528.729,20.797 403.64,20.797 373.779,50.338 373.779,207.094 			"/>
		</g>
		<path fill="#FFFFFF" d="M197.531,50.412l-0.024,156.837h90.347v24.288h-90.347v47.775H322.59l29.811-29.557l0.021-229.073H227.395
			L197.531,50.412z M262.054,67.809h0.042h25.724h0.033v92.444h-0.033h-25.724h-0.042V67.809z"/>
		<path fill="#FFFFFF" d="M21.258,50.412v156.682h154.837v-46.842h-90.24v-25.066h90.24V20.797H51.13L21.258,50.412z M85.856,67.809
			h25.76v25.07h-25.76V67.809z"/>
		<g>
			<path fill="#FFFFFF" d="M176.096,135.187h-90.24v25.066h90.24v46.842H21.258V50.412L51.13,20.797h124.966V135.187
				L176.096,135.187z M352.398,249.759l-29.812,29.556H197.506V231.54h90.348v-24.29h-90.348l0.024-156.837l29.864-29.726H352.42
				L352.398,249.759z M528.614,207.148h-64.479v-62.74h64.479V207.148z M528.667,111.723h-64.509l-0.034-43.992h-25.767
				l-0.02,139.417l-64.563-0.057V50.338l29.859-29.541h125.089L528.667,111.723z"/>
		</g>
	</g>
	<g opacity="0.1">
		<g>
			<rect x="454.137" y="154.408" fill="none" width="64.479" height="62.74"/>
			<polygon fill="none" points="428.34,217.148 428.357,77.809 428.357,77.731 428.381,77.731 454.124,77.731 454.151,77.731 
				454.158,77.731 454.158,121.723 518.667,121.723 518.729,30.797 393.641,30.797 363.779,60.338 363.779,217.094 			"/>
		</g>
		<path fill="none" d="M187.531,60.412l-0.024,156.837h90.347v24.288h-90.347v47.775H312.59l29.811-29.557l0.021-229.073H217.395
			L187.531,60.412z M252.054,77.809h0.042h25.724h0.033v92.444h-0.033h-25.724h-0.042V77.809z"/>
		<path fill="none" d="M11.258,60.412v156.682h154.837v-46.842h-90.24v-25.066h90.24V30.797H41.13L11.258,60.412z M75.856,77.809
			h25.76v25.07h-25.76V77.809z"/>
		<g>
			<polygon fill="#231F20" points="277.82,170.252 277.854,170.252 277.854,77.809 277.82,77.809 252.096,77.809 252.054,77.809 
				252.054,170.252 252.096,170.252 			"/>
			<path fill="#231F20" d="M384.73,10.111l-21.054,20.826V30.69V10H208.449l-21.095,20.996v-0.199V10.111H32.209L-10,51.955v185.826
				h176.245L166.249,310h155.269l42.266-41.855v-30.31h176.092L540,10.111H384.73z M166.096,145.187h-90.24v25.066h90.24v46.842
				H11.258V60.412L41.13,30.797h124.966V145.187L166.096,145.187z M342.398,259.759l-29.812,29.556H187.506V241.54h90.348v-24.29
				h-90.348l0.024-156.837l29.864-29.726H342.42L342.398,259.759z M518.614,217.148h-64.479v-62.74h64.479V217.148z
				 M518.667,121.723h-64.509l-0.034-43.992h-25.767l-0.02,139.417l-64.563-0.057V60.338l29.859-29.541h125.089L518.667,121.723z"/>
			<rect x="75.856" y="77.809" fill="#231F20" width="25.76" height="25.07"/>
		</g>
	</g>
	<g>
		<g>
			<rect x="464.137" y="144.408" fill="none" width="64.479" height="62.74"/>
			<polygon fill="none" points="438.34,207.148 438.357,67.809 438.357,67.731 438.381,67.731 464.124,67.731 464.151,67.731 
				464.158,67.731 464.158,111.723 528.667,111.723 528.729,20.797 403.64,20.797 373.779,50.338 373.779,207.094 			"/>
		</g>
		<path fill="none" d="M197.531,50.412l-0.024,156.837h90.347v24.288h-90.347v47.775H322.59l29.811-29.557l0.021-229.073H227.395
			L197.531,50.412z M262.054,67.809h0.042h25.724h0.033v92.444h-0.033h-25.724h-0.042V67.809z"/>
		<path fill="none" d="M21.258,50.412v156.682h154.837v-46.842h-90.24v-25.066h90.24V20.797H51.13L21.258,50.412z M85.856,67.809
			h25.76v25.07h-25.76V67.809z"/>
		<g>
			<polygon points="287.82,160.252 287.854,160.252 287.854,67.809 287.82,67.809 262.096,67.809 262.054,67.809 262.054,160.252 
				262.096,160.252 			"/>
			<path d="M394.73,0.111l-21.054,20.826V20.69V0H218.449l-21.095,20.996v-0.199V0.111H42.209L0,41.955v185.826h176.245L176.249,300
				h155.269l42.266-41.855v-30.31h176.092L550,0.111H394.73z M176.096,135.187h-90.24v25.066h90.24v46.842H21.258V50.412
				L51.13,20.797h124.966V135.187L176.096,135.187z M352.398,249.759l-29.812,29.556H197.506V231.54h90.348v-24.29h-90.348
				l0.024-156.837l29.864-29.726H352.42L352.398,249.759z M528.614,207.148h-64.479v-62.74h64.479V207.148z M528.667,111.723
				h-64.509l-0.034-43.992h-25.767l-0.02,139.417l-64.563-0.057V50.338l29.859-29.541h125.089L528.667,111.723z"/>
			<rect x="85.856" y="67.809" width="25.76" height="25.07"/>
		</g>
	</g>
</g>
</svg>
